<?xml version="1.0" encoding="UTF-8"?>
<svg width="50px" height="42px" viewBox="0 0 50 42" version="1.1" xmlns="http://www.w3.org/2000/svg" xmlns:xlink="http://www.w3.org/1999/xlink" xmlns:sketch="http://www.bohemiancoding.com/sketch/ns">
    <!-- Generator: Sketch 3.5.1 (25234) - http://www.bohemiancoding.com/sketch -->
    <title>responsive</title>
    <desc>Created with Sketch.</desc>
    <defs></defs>
    <g id="Page-1" stroke="none" stroke-width="1" fill="none" fill-rule="evenodd" sketch:type="MSPage">
        <g id="Promo" sketch:type="MSArtboardGroup" transform="translate(-335.000000, -868.000000)">
            <g id="Group-2" sketch:type="MSLayerGroup" transform="translate(250.000000, 864.000000)">
                <g id="responsive" transform="translate(85.000000, 0.000000)" sketch:type="MSShapeGroup">
                    <path d="M0,0 L50,0 L50,50 L0,50 L0,0 L0,0 Z" id="Shape"></path>
                    <path d="M47.9166667,22.9375 L37.5,22.9166667 C36.3541667,22.9166667 35.4166667,23.8541667 35.4166667,25 L35.4166667,43.75 C35.4166667,44.8958333 36.3541667,45.8333333 37.5,45.8333333 L47.9166667,45.8333333 C49.0625,45.8333333 50,44.8958333 50,43.75 L50,25 C50,23.8541667 49.0625,22.9375 47.9166667,22.9375 L47.9166667,22.9375 Z M47.9166667,41.6666667 L37.5,41.6666667 L37.5,27.0833333 L47.9166667,27.0833333 L47.9166667,41.6666667 L47.9166667,41.6666667 Z M41.6666667,4.16666667 L4.16666667,4.16666667 C1.85416667,4.16666667 0,6.02083333 0,8.33333333 L0,33.3333333 C0,35.625 1.85416667,37.5 4.16666667,37.5 L18.75,37.5 L18.75,41.6666667 L14.5833333,41.6666667 L14.5833333,45.8333333 L31.25,45.8333333 L31.25,41.6666667 L27.0833333,41.6666667 L27.0833333,37.5 L31.25,37.5 L31.25,33.3333333 L4.16666667,33.3333333 L4.16666667,8.33333333 L41.6666667,8.33333333 L41.6666667,18.75 L45.8333333,18.75 L45.8333333,8.33333333 C45.8333333,6.02083333 43.9583333,4.16666667 41.6666667,4.16666667 L41.6666667,4.16666667 Z" id="Shape" fill="#000000"></path>
                </g>
            </g>
        </g>
    </g>
</svg>